# Blender v2.80 (sub 75) OBJ File: 'Drone.blend'
# www.blender.org
v -0.086436 0.041799 0.088013
v -0.085906 0.029083 0.096391
v -0.092179 0.029097 0.087011
v -0.093048 0.029869 0.089844
v -0.090442 0.030193 0.083715
v -0.126421 0.028429 0.080371
v -0.140850 0.030733 0.064628
v -0.078098 0.029043 0.088930
v -0.085730 0.028943 0.081633
v -0.080964 0.030231 0.094232
v -0.078596 0.030742 0.089727
v -0.044991 0.028429 0.097592
v -0.030561 0.030733 0.113335
v -0.085704 0.028354 0.088978
vt 0.142576 0.054547
vt 0.154113 0.116562
vt 0.256884 0.065676
vt 0.083516 0.624835
vt 0.043896 0.726055
vt 0.086665 0.732558
vt 0.142525 0.116523
vt 0.917300 0.517505
vt 0.702524 0.981878
vt 0.825725 0.837465
vt 0.488064 0.486657
vt 0.406981 0.149084
vt 0.286229 0.047880
vt 0.123134 0.564557
vt 0.113335 0.502388
vt 0.050865 0.523537
vt 0.447571 0.982564
vt 0.662347 0.518191
vt 0.539146 0.662603
vt 0.528922 0.012616
vt 0.607639 0.351288
vt 0.728390 0.452492
vt 0.140967 0.663218
vt 0.201359 0.681180
vt 0.184493 0.625458
vt 0.254010 0.664364
vt 0.215223 0.740265
vt 0.003625 0.554695
vt 0.122592 0.606680
vt 0.146976 0.715564
vt 0.881197 0.502515
vt 0.422629 0.502912
vt 0.434218 0.632050
vt 0.427035 0.502023
vt 0.463103 0.498211
vt 0.047029 0.876107
vt 0.054688 0.766864
vt 0.052695 0.756870
vt 0.144183 0.010171
vt 0.122538 0.498520
vt 0.484513 0.997594
vt 0.412756 0.981444
vt 0.401167 0.852304
vt 0.408346 0.982253
vt 0.551469 0.002100
vn -0.2746 0.4165 -0.8667
vn -0.2714 0.4151 -0.8683
vn -0.2737 0.4135 -0.8684
vn -0.8456 0.4140 -0.3369
vn -0.8459 0.4163 -0.3332
vn -0.8416 0.4182 -0.3419
vn -0.4128 -0.7765 -0.4761
vn -0.4274 -0.7720 -0.4705
vn -0.4124 -0.7724 -0.4830
vn -0.1103 0.9639 0.2422
vn -0.1120 0.9642 0.2402
vn 0.0570 -0.9790 -0.1956
vn 0.0590 -0.9787 -0.1965
vn 0.0589 -0.9792 -0.1942
vn -0.2290 0.9733 -0.0119
vn -0.2325 0.9725 -0.0103
vn -0.2320 0.9727 -0.0090
vn 0.1258 0.9586 -0.2556
vn 0.1275 0.9589 -0.2536
vn -0.0729 -0.9751 0.2095
vn -0.0750 -0.9747 0.2104
vn -0.0747 -0.9752 0.2082
vn -0.1909 -0.9774 0.0908
vn 0.0904 -0.9909 0.0998
vn -0.2054 -0.9753 -0.0812
vn -0.2112 -0.9748 -0.0714
vn -0.2431 -0.9641 -0.1072
vn 0.0929 -0.9928 -0.0750
vn 0.0834 -0.9932 -0.0810
vn 0.1211 -0.9863 -0.1121
vn -0.5844 0.4187 0.6951
vn -0.5804 0.4318 0.6904
vn -0.5939 0.4349 0.6768
vn 0.2740 -0.9065 0.3212
vn 0.2469 -0.9121 0.3274
vn 0.2509 -0.9129 0.3221
vn -0.0236 0.9977 0.0643
vn -0.0043 0.9987 0.0509
vn -0.0094 0.9990 0.0446
vn -0.0322 -0.9675 0.2510
vn 0.0626 -0.9594 0.2749
vn -0.1294 -0.9542 0.2697
vn 0.0897 -0.9584 -0.2709
vn 0.0920 -0.9584 -0.2701
vn 0.0944 -0.9585 -0.2691
vn 0.7505 0.4389 -0.4941
vn 0.7352 0.4610 -0.4969
vn 0.7393 0.4610 -0.4907
vn 0.5178 0.4802 0.7080
vn 0.5331 0.4708 0.7030
vn 0.5285 0.4924 0.6916
vn 0.6382 0.3714 -0.6744
vn 0.6419 0.3708 -0.6712
vn 0.6396 0.3687 -0.6745
vn 0.3706 -0.8454 0.3847
vn 0.3569 -0.8456 0.3970
vn 0.3624 -0.8480 0.3866
vn -0.0275 0.9967 0.0759
vn -0.0476 0.9950 0.0883
vn -0.0427 0.9946 0.0946
vn 0.2347 0.4659 -0.8532
vn 0.1381 0.4699 -0.8718
vn 0.3146 0.5019 -0.8057
vn -0.0536 -0.9835 0.1729
vn -0.0621 -0.9801 0.1887
vn -0.0749 -0.9809 0.1795
s off
f 9/1/1 5/2/2 1/3/3
f 1/4/4 5/5/5 4/6/6
f 5/2/7 9/1/8 3/7/9
f 4/8/10 7/9/10 6/10/11
f 3/11/12 6/12/13 7/13/14
f 2/14/15 10/15/16 11/16/17
f 11/17/18 13/18/18 12/19/19
f 8/20/20 12/21/21 13/22/22
f 4/23/23 14/24/23 2/25/23
f 8/26/24 2/25/24 14/24/24
f 4/23/25 9/27/26 14/24/27
f 9/27/28 8/26/29 14/24/30
f 1/28/31 4/29/32 2/14/33
f 3/30/34 9/27/35 4/23/36
f 5/31/37 7/9/38 4/8/39
f 4/32/40 6/33/41 3/34/42
f 5/35/43 3/11/44 7/13/45
f 1/36/46 11/37/47 8/38/48
f 11/16/49 1/28/50 2/14/51
f 8/39/52 9/1/53 1/3/54
f 2/14/55 8/40/56 10/15/57
f 10/41/58 13/18/59 11/17/60
f 11/42/61 12/43/62 8/44/63
f 10/45/64 8/20/65 13/22/66
