# Blender v2.80 (sub 75) OBJ File: 'Drone.blend'
# www.blender.org
v -0.088013 0.041799 -0.086436
v -0.096391 0.029083 -0.085906
v -0.087011 0.029097 -0.092179
v -0.089844 0.029869 -0.093048
v -0.083715 0.030193 -0.090442
v -0.080371 0.028429 -0.126421
v -0.064628 0.030733 -0.140850
v -0.088930 0.029043 -0.078098
v -0.081633 0.028943 -0.085730
v -0.094232 0.030231 -0.080964
v -0.089727 0.030742 -0.078596
v -0.097592 0.028429 -0.044991
v -0.113335 0.030733 -0.030561
v -0.088978 0.028354 -0.085704
vt 0.142576 0.054547
vt 0.154113 0.116562
vt 0.256884 0.065676
vt 0.083516 0.624835
vt 0.043896 0.726055
vt 0.086665 0.732558
vt 0.142525 0.116523
vt 0.917300 0.517505
vt 0.702524 0.981878
vt 0.825725 0.837465
vt 0.488064 0.486657
vt 0.406981 0.149084
vt 0.286229 0.047880
vt 0.123134 0.564557
vt 0.113335 0.502388
vt 0.050865 0.523537
vt 0.447571 0.982564
vt 0.662347 0.518191
vt 0.539146 0.662603
vt 0.528922 0.012616
vt 0.607639 0.351288
vt 0.728390 0.452492
vt 0.140967 0.663218
vt 0.201359 0.681180
vt 0.184493 0.625458
vt 0.254010 0.664364
vt 0.215223 0.740265
vt 0.003625 0.554695
vt 0.122592 0.606680
vt 0.146976 0.715564
vt 0.881197 0.502515
vt 0.422629 0.502912
vt 0.434218 0.632050
vt 0.427035 0.502023
vt 0.463103 0.498211
vt 0.047029 0.876107
vt 0.054688 0.766864
vt 0.052695 0.756870
vt 0.144183 0.010171
vt 0.122538 0.498520
vt 0.484513 0.997594
vt 0.412756 0.981444
vt 0.401167 0.852304
vt 0.408346 0.982253
vt 0.551469 0.002100
vn 0.8667 0.4165 -0.2746
vn 0.8683 0.4151 -0.2714
vn 0.8684 0.4135 -0.2737
vn 0.3369 0.4140 -0.8456
vn 0.3332 0.4163 -0.8459
vn 0.3419 0.4182 -0.8416
vn 0.4761 -0.7765 -0.4128
vn 0.4705 -0.7720 -0.4274
vn 0.4830 -0.7724 -0.4124
vn -0.2422 0.9639 -0.1103
vn -0.2402 0.9642 -0.1120
vn 0.1956 -0.9790 0.0570
vn 0.1965 -0.9787 0.0590
vn 0.1942 -0.9792 0.0589
vn 0.0119 0.9733 -0.2290
vn 0.0103 0.9725 -0.2325
vn 0.0090 0.9727 -0.2320
vn 0.2556 0.9586 0.1258
vn 0.2536 0.9589 0.1275
vn -0.2095 -0.9751 -0.0729
vn -0.2104 -0.9747 -0.0750
vn -0.2082 -0.9752 -0.0747
vn -0.0908 -0.9774 -0.1909
vn -0.0998 -0.9909 0.0904
vn 0.0812 -0.9753 -0.2054
vn 0.0714 -0.9748 -0.2112
vn 0.1072 -0.9641 -0.2431
vn 0.0750 -0.9928 0.0929
vn 0.0810 -0.9932 0.0834
vn 0.1121 -0.9863 0.1211
vn -0.6951 0.4187 -0.5844
vn -0.6904 0.4318 -0.5804
vn -0.6768 0.4349 -0.5939
vn -0.3212 -0.9065 0.2740
vn -0.3274 -0.9121 0.2469
vn -0.3221 -0.9129 0.2509
vn -0.0643 0.9977 -0.0236
vn -0.0509 0.9987 -0.0043
vn -0.0446 0.9990 -0.0094
vn -0.2510 -0.9675 -0.0322
vn -0.2749 -0.9594 0.0626
vn -0.2697 -0.9542 -0.1294
vn 0.2709 -0.9584 0.0897
vn 0.2701 -0.9584 0.0920
vn 0.2691 -0.9585 0.0944
vn 0.4941 0.4389 0.7505
vn 0.4969 0.4610 0.7352
vn 0.4907 0.4610 0.7393
vn -0.7080 0.4802 0.5178
vn -0.7030 0.4707 0.5331
vn -0.6916 0.4924 0.5285
vn 0.6744 0.3714 0.6382
vn 0.6712 0.3708 0.6419
vn 0.6745 0.3687 0.6396
vn -0.3847 -0.8454 0.3706
vn -0.3970 -0.8456 0.3569
vn -0.3866 -0.8480 0.3624
vn -0.0759 0.9967 -0.0275
vn -0.0883 0.9950 -0.0476
vn -0.0946 0.9946 -0.0427
vn 0.8532 0.4659 0.2347
vn 0.8718 0.4699 0.1381
vn 0.8057 0.5019 0.3146
vn -0.1729 -0.9835 -0.0536
vn -0.1887 -0.9801 -0.0621
vn -0.1795 -0.9809 -0.0749
s off
f 9/1/1 5/2/2 1/3/3
f 1/4/4 5/5/5 4/6/6
f 5/2/7 9/1/8 3/7/9
f 4/8/10 7/9/10 6/10/11
f 3/11/12 6/12/13 7/13/14
f 2/14/15 10/15/16 11/16/17
f 11/17/18 13/18/18 12/19/19
f 8/20/20 12/21/21 13/22/22
f 4/23/23 14/24/23 2/25/23
f 8/26/24 2/25/24 14/24/24
f 4/23/25 9/27/26 14/24/27
f 9/27/28 8/26/29 14/24/30
f 1/28/31 4/29/32 2/14/33
f 3/30/34 9/27/35 4/23/36
f 5/31/37 7/9/38 4/8/39
f 4/32/40 6/33/41 3/34/42
f 5/35/43 3/11/44 7/13/45
f 1/36/46 11/37/47 8/38/48
f 11/16/49 1/28/50 2/14/51
f 8/39/52 9/1/53 1/3/54
f 2/14/55 8/40/56 10/15/57
f 10/41/58 13/18/59 11/17/60
f 11/42/61 12/43/62 8/44/63
f 10/45/64 8/20/65 13/22/66
